<?xml version="1.0" standalone="no"?>
<!DOCTYPE svg PUBLIC "-//W3C//DTD SVG 20010904//EN"
 "http://www.w3.org/TR/2001/REC-SVG-20010904/DTD/svg10.dtd">
<svg version="1.0" xmlns="http://www.w3.org/2000/svg"
 width="260.000000pt" height="260.000000pt" viewBox="0 0 260.000000 260.000000"
 preserveAspectRatio="xMidYMid meet">
<metadata>
Created by potrace 1.14, written by Peter Selinger 2001-2017
</metadata>
<g transform="translate(0.000000,260.000000) scale(0.100000,-0.100000)"
fill="#000000" stroke="none">
<path d="M758 1816 c-10 -7 -18 -19 -18 -25 0 -7 -4 -10 -9 -6 -5 3 -12 -4
-16 -15 -4 -11 -11 -18 -16 -15 -5 4 -9 -1 -9 -10 0 -11 -5 -15 -14 -12 -11 4
-13 1 -9 -11 3 -9 3 -14 -2 -10 -4 4 -18 -6 -30 -22 -12 -16 -25 -27 -28 -23
-4 3 -7 -1 -7 -11 0 -9 -4 -14 -10 -11 -5 3 -10 1 -10 -5 0 -6 -4 -9 -9 -6 -5
3 -8 -2 -7 -12 0 -9 -5 -16 -11 -15 -7 2 -13 -4 -13 -13 0 -9 -5 -12 -12 -8
-7 5 -9 2 -5 -8 3 -10 0 -15 -11 -14 -9 0 -16 -5 -15 -11 2 -7 -4 -13 -13 -13
-8 0 -12 -4 -9 -10 6 -9 -7 -14 -27 -11 -4 0 -4 -7 -1 -16 4 -9 2 -14 -3 -11
-11 7 -35 -17 -27 -26 4 -3 -1 -6 -11 -6 -9 0 -14 -4 -11 -10 6 -9 -7 -14 -27
-11 -4 0 -4 -7 -1 -16 4 -11 3 -14 -5 -9 -7 4 -12 1 -12 -8 0 -9 -7 -16 -15
-16 -8 0 -15 -7 -15 -17 0 -9 -3 -14 -6 -11 -7 8 -54 -36 -54 -51 0 -6 -6 -10
-13 -9 -6 2 -11 -3 -9 -9 1 -7 -5 -13 -14 -13 -8 0 -12 -4 -9 -10 3 -5 1 -10
-4 -10 -15 0 -51 -37 -44 -44 4 -3 -1 -6 -10 -6 -10 0 -17 -7 -17 -16 0 -8 -4
-12 -10 -9 -5 3 -10 -1 -10 -9 0 -9 -6 -15 -12 -13 -7 1 -12 -6 -12 -15 1 -10
-2 -15 -7 -12 -5 3 -9 0 -9 -6 0 -6 -4 -8 -10 -5 -5 3 -10 1 -10 -5 0 -6 -6
-8 -12 -4 -7 4 -10 4 -6 -1 4 -4 -1 -20 -12 -35 -24 -33 -25 -58 -5 -86 8 -12
11 -24 7 -28 -3 -4 1 -4 10 -1 9 4 18 0 22 -10 3 -10 13 -15 20 -12 8 3 17 3
19 -1 2 -4 3 -2 1 5 -2 10 30 27 49 24 4 -1 7 6 7 15 0 8 4 13 9 9 5 -3 12 4
16 15 3 11 13 20 21 20 8 0 14 7 14 15 0 8 5 14 12 12 6 -1 17 8 23 20 7 13
15 20 19 16 4 -4 9 3 13 15 3 12 12 22 19 22 8 0 14 7 14 16 0 8 4 13 9 10 5
-3 15 2 22 11 10 12 10 14 2 9 -7 -4 -13 -5 -13 -1 0 3 12 10 26 16 15 5 24
12 20 16 -3 3 4 11 17 18 12 6 21 17 19 23 -1 7 5 12 13 12 8 0 15 7 15 15 0
8 7 15 16 15 8 0 12 5 9 10 -3 6 1 10 9 10 9 0 16 7 16 16 0 8 4 13 9 9 12 -7
33 29 23 39 -3 4 1 4 11 0 12 -4 17 -1 17 11 0 9 5 13 10 10 6 -3 10 -2 10 2
0 5 7 18 16 29 8 10 12 13 8 5 -5 -9 -3 -12 4 -7 7 4 12 14 12 22 0 8 4 13 9
9 5 -3 13 4 16 16 6 17 9 19 16 8 6 -10 9 -8 9 9 0 13 3 21 8 19 4 -2 18 7 32
21 16 16 18 20 5 11 -18 -13 -19 -13 -6 4 7 9 20 17 28 17 10 0 13 6 9 16 -3
8 -2 12 4 9 6 -3 10 -1 10 4 0 6 6 10 13 9 6 -2 11 3 9 11 -2 9 4 12 17 8 14
-3 18 -1 14 10 -5 13 -3 13 15 2 11 -7 20 -18 19 -23 -1 -6 4 -10 11 -9 6 2
12 -3 12 -10 0 -6 14 -23 30 -36 17 -13 30 -30 30 -38 0 -8 3 -12 8 -10 9 6
52 -39 45 -47 -4 -3 0 -6 8 -6 17 0 119 -103 119 -120 0 -6 5 -8 10 -5 6 3 10
1 10 -5 0 -6 5 -8 13 -4 8 5 8 2 -2 -9 -10 -12 -10 -17 -2 -17 17 0 41 -26 33
-35 -4 -5 -2 -5 4 -2 6 4 24 -9 40 -28 16 -19 35 -35 42 -35 7 0 11 -4 7 -9
-3 -6 4 -15 15 -21 11 -6 17 -16 14 -22 -5 -7 -1 -9 9 -5 11 4 17 1 17 -7 0
-8 7 -16 15 -20 8 -3 15 -12 15 -21 0 -8 7 -15 16 -15 8 0 13 -4 10 -9 -3 -5
1 -12 10 -15 8 -3 12 -11 8 -17 -5 -8 -3 -9 5 -4 12 7 48 -32 44 -47 -2 -4 4
-5 12 -2 8 4 15 1 15 -6 0 -6 5 -8 10 -5 6 3 10 2 10 -3 0 -5 9 -12 20 -15 12
-3 18 -1 14 5 -4 6 2 6 14 -1 25 -13 35 -14 27 -2 -3 5 0 13 6 17 7 4 9 3 6
-3 -4 -6 1 -14 10 -17 9 -4 20 -2 23 5 6 8 9 8 14 0 4 -6 12 -11 17 -11 6 0 8
4 4 9 -3 5 0 13 6 17 8 4 9 3 5 -4 -4 -7 -1 -12 6 -13 45 -4 55 -3 75 3 12 4
25 3 28 -2 4 -6 11 -10 16 -10 6 0 8 4 5 8 -3 5 1 9 9 9 8 0 12 -4 9 -9 -7
-11 7 -10 26 2 10 6 20 4 33 -7 17 -16 17 -16 11 2 -5 13 -4 16 5 11 15 -10
109 -12 118 -3 3 4 12 2 20 -4 10 -9 13 -8 13 2 0 10 3 10 12 1 14 -14 32 -16
24 -3 -3 4 12 5 34 1 21 -4 44 -3 51 1 8 4 19 3 26 -3 10 -8 13 -7 13 3 0 10
3 10 12 1 14 -14 32 -16 23 -3 -3 6 6 7 22 2 16 -5 38 -5 50 0 13 5 25 4 28
-1 4 -6 11 -10 16 -10 6 0 8 4 5 8 -3 5 1 9 9 9 8 0 12 -4 9 -9 -7 -11 7 -10
26 2 10 6 20 4 33 -7 17 -16 17 -16 11 0 -5 15 -3 16 20 7 19 -7 26 -6 26 3 0
8 4 7 10 -3 8 -12 10 -12 10 5 0 15 2 17 9 6 6 -9 11 -10 15 -2 4 6 12 8 18 5
6 -4 8 -2 4 4 -3 6 0 14 8 19 8 4 15 19 16 33 3 40 1 52 -10 45 -6 -4 -10 -3
-9 2 4 22 -2 43 -11 38 -6 -3 -10 1 -10 9 0 9 -8 16 -17 16 -9 0 -14 3 -11 6
8 7 -42 60 -54 56 -5 -1 -7 2 -3 8 7 12 -19 42 -29 33 -3 -4 -6 4 -6 16 0 12
-3 20 -7 18 -5 -2 -18 7 -30 20 -12 13 -19 23 -15 23 4 0 -5 10 -19 23 -15 12
-27 25 -28 30 0 4 -4 6 -7 5 -3 -2 -12 10 -20 25 -8 15 -19 25 -24 22 -6 -4
-10 3 -10 14 0 11 -9 22 -20 26 -11 4 -20 15 -20 26 0 11 -4 18 -8 15 -4 -2
-19 10 -32 27 -14 17 -33 38 -42 46 -10 9 -18 21 -18 28 0 7 -11 13 -26 13
-14 0 -23 4 -20 9 7 11 -13 9 -31 -2 -8 -5 -13 -3 -13 3 0 8 -6 7 -21 -1 -15
-8 -19 -8 -15 0 5 8 0 8 -18 1 -17 -6 -27 -6 -32 1 -4 6 -11 6 -20 -2 -11 -9
-14 -9 -14 0 0 9 -5 9 -21 0 -17 -8 -23 -8 -29 1 -5 8 -13 9 -21 4 -23 -14
-39 -13 -39 2 0 24 -1 29 -13 43 -9 12 -9 13 1 7 10 -6 12 1 9 26 -2 19 -7 40
-12 47 -5 9 -4 12 2 8 6 -4 13 0 17 8 3 8 0 17 -6 21 -7 5 -8 2 -3 -6 5 -9 4
-11 -4 -6 -6 4 -8 13 -4 19 22 35 13 38 -103 36 -67 -1 -117 -6 -121 -12 -3
-5 -1 -7 4 -4 13 8 14 -41 2 -64 -6 -11 -4 -21 6 -29 8 -7 12 -17 8 -23 -4 -6
-6 -24 -5 -39 2 -30 -6 -38 -48 -43 -19 -3 -30 0 -30 8 0 7 -4 6 -10 -3 -6
-10 -10 -11 -10 -2 0 6 -5 12 -11 12 -5 0 -8 -4 -5 -8 2 -4 -4 -8 -15 -8 -10
0 -19 4 -19 8 0 5 -10 3 -22 -3 -16 -9 -23 -9 -26 0 -2 6 -8 11 -13 11 -6 0
-7 -5 -3 -11 4 -8 1 -8 -12 -2 -24 10 -55 10 -73 -1 -8 -5 -16 -4 -21 4 -6 10
-9 9 -13 -1 -4 -10 -6 -10 -6 -1 -1 6 -6 12 -12 12 -5 0 -8 -4 -5 -8 2 -4 -4
-8 -15 -8 -10 0 -19 4 -19 8 0 5 -10 4 -21 -3 -16 -8 -23 -8 -29 1 -6 9 -9 9
-13 -1 -5 -12 -6 -12 -6 0 -1 11 -4 11 -18 0 -15 -12 -16 -12 -8 1 7 13 6 13
-7 2 -14 -11 -17 -10 -23 8 -3 11 -11 18 -16 15 -5 -4 -9 -1 -9 5 0 15 -46 60
-61 60 -7 0 -10 3 -6 6 8 8 -18 34 -33 34 -6 0 -8 5 -5 10 3 6 -2 10 -11 10
-10 0 -14 3 -11 6 4 4 -6 18 -21 30 -31 27 -95 32 -124 10z m822 -76 c0 -5 -5
-10 -11 -10 -5 0 -7 5 -4 10 3 6 8 10 11 10 2 0 4 -4 4 -10z m-1490 -780 c0
-5 -4 -10 -10 -10 -5 0 -10 5 -10 10 0 6 5 10 10 10 6 0 10 -4 10 -10z"/>
<path d="M600 1234 c-13 -16 -13 -17 0 -10 8 4 7 1 -4 -8 -10 -8 -15 -20 -11
-26 11 -17 11 -89 1 -82 -5 3 -6 -2 -3 -12 4 -10 7 -22 7 -27 0 -5 10 -4 23 2
21 12 21 11 7 -6 -9 -11 -10 -16 -2 -11 7 4 12 2 12 -6 0 -10 3 -9 10 2 5 8
12 11 16 7 4 -4 13 -2 21 4 9 9 13 8 13 0 0 -6 5 -11 11 -11 5 0 8 4 5 8 -2 4
4 8 15 8 10 0 19 -3 19 -6 0 -4 6 -7 14 -7 8 0 12 6 9 14 -3 7 0 13 7 13 6 0
8 5 4 12 -4 6 -6 38 -5 70 2 41 -2 62 -13 73 -9 9 -17 11 -21 5 -9 -15 -27
-12 -19 3 6 10 4 10 -7 0 -15 -15 -33 -17 -24 -4 5 9 -40 5 -56 -5 -4 -2 -9 1
-11 7 -2 7 -10 4 -18 -7z"/>
<path d="M854 1239 c-4 -8 -3 -9 4 -5 7 4 12 3 12 -3 0 -5 -6 -12 -12 -14 -10
-4 -9 -6 1 -6 11 -1 11 -4 0 -17 -10 -13 -10 -17 2 -25 12 -7 12 -9 -1 -9 -13
0 -13 -1 0 -10 13 -8 13 -11 1 -22 -11 -11 -13 -11 -6 1 6 10 4 12 -5 6 -10
-6 -10 -11 3 -20 17 -12 24 -31 9 -21 -5 3 -9 -1 -9 -9 0 -8 7 -17 14 -19 8
-3 11 -11 7 -17 -4 -8 -3 -9 5 -5 9 6 9 11 -1 24 -12 14 -10 14 10 3 12 -6 22
-17 22 -24 0 -8 4 -7 10 3 5 8 12 11 16 7 4 -4 18 0 31 8 13 9 23 12 22 8 -3
-20 2 -27 11 -13 6 10 10 11 10 3 0 -7 5 -13 11 -13 5 0 7 5 4 10 -3 6 -1 10
5 10 6 0 8 5 5 10 -3 6 0 10 7 10 9 0 9 3 -2 10 -13 9 -13 11 0 20 10 6 11 10
3 10 -15 0 -13 41 2 52 6 5 5 8 -2 8 -7 0 -13 7 -13 16 0 9 5 12 13 8 6 -4 3
2 -8 13 -11 11 -23 16 -26 10 -4 -5 -9 -5 -13 2 -5 7 -15 7 -31 1 -18 -7 -25
-6 -25 3 0 8 -4 7 -10 -3 -8 -12 -11 -13 -19 -1 -6 9 -10 10 -16 2 -5 -9 -10
-9 -20 -1 -10 8 -15 8 -21 -1z"/>
<path d="M946 994 c-5 -14 -9 -14 -23 -3 -9 8 -14 9 -10 3 4 -7 0 -15 -9 -18
-12 -5 -15 -2 -10 11 5 15 4 15 -9 -1 -8 -11 -15 -24 -15 -29 0 -4 -4 -5 -10
-2 -5 3 -10 -1 -10 -9 0 -9 6 -16 13 -16 8 0 8 -3 -2 -9 -11 -7 -10 -10 5 -14
17 -4 17 -5 1 -6 -10 0 -15 -6 -12 -11 4 -6 1 -18 -7 -27 -8 -10 -8 -14 -1
-10 6 4 14 3 18 -3 3 -5 1 -10 -4 -10 -6 0 -11 -5 -11 -11 0 -5 5 -7 10 -4 6
3 10 0 10 -7 0 -9 13 -12 46 -9 32 2 49 -1 55 -10 7 -11 9 -9 10 6 0 11 3 15
5 8 4 -8 13 -9 29 -3 12 5 26 6 31 2 4 -4 3 0 -2 8 -13 23 -14 70 -1 70 7 0 6
4 -2 9 -11 7 -12 13 -4 23 8 10 8 18 -3 32 -7 10 -11 22 -9 26 3 5 -2 11 -11
14 -10 4 -13 2 -8 -6 5 -8 2 -9 -9 -5 -9 3 -19 2 -22 -3 -8 -13 -25 -13 -25 1
0 5 4 7 10 4 6 -3 7 1 4 9 -8 20 -10 20 -18 0z"/>
<path d="M604 991 c4 -6 0 -14 -9 -17 -13 -6 -14 -8 -3 -15 11 -7 11 -9 -1 -9
-11 0 -11 -3 0 -17 8 -9 9 -14 3 -10 -9 5 -10 -3 -4 -28 4 -19 4 -32 -1 -30
-10 7 -3 -54 7 -64 4 -3 4 2 1 12 -6 16 -5 16 18 1 17 -11 25 -12 25 -5 0 7 5
9 10 6 6 -4 7 -12 3 -18 -5 -8 -2 -8 9 1 17 13 66 13 85 0 7 -6 14 -4 19 3 4
8 3 9 -4 5 -7 -4 -12 -2 -12 3 0 6 5 11 11 11 6 0 9 7 5 15 -3 8 -1 15 5 15 6
0 8 3 5 8 -2 4 -5 32 -7 62 -3 59 -14 76 -38 57 -12 -9 -13 -9 -7 1 8 13 -6
17 -18 5 -10 -11 -36 -12 -36 -2 0 5 -10 9 -22 9 -18 0 -20 -2 -8 -10 12 -7
10 -9 -7 -7 -12 0 -20 4 -17 8 2 4 -1 11 -7 15 -8 4 -9 3 -5 -5z"/>
<path d="M855 980 c-3 -5 -1 -10 4 -10 6 0 11 5 11 10 0 6 -2 10 -4 10 -3 0
-8 -4 -11 -10z"/>
</g>
</svg>
